<?xml version="1.0" encoding="UTF-8"?>
<svg xmlns="http://www.w3.org/2000/svg" xmlns:xlink="http://www.w3.org/1999/xlink" viewBox="0 0 24 24" width="24px" height="24px">
<g id="surface98940870">
<path style=" stroke:none;fill-rule:nonzero;fill:rgb(96.078432%,27.843139%,40.784314%);fill-opacity:1;" d="M 21.101562 0.300781 L 2.898438 0.300781 C 1.464844 0.300781 0.300781 1.464844 0.300781 2.898438 L 0.300781 21.101562 C 0.300781 22.535156 1.464844 23.699219 2.898438 23.699219 L 21.101562 23.699219 C 22.535156 23.699219 23.699219 22.535156 23.699219 21.101562 L 23.699219 2.898438 C 23.699219 1.464844 22.535156 0.300781 21.101562 0.300781 Z M 6.460938 18.5 C 5.554688 18.5 4.820312 17.765625 4.820312 16.859375 L 4.820312 11.039062 C 4.820312 10.132812 5.554688 9.398438 6.460938 9.398438 C 7.367188 9.398438 8.101562 10.132812 8.101562 11.039062 L 8.101562 16.859375 C 8.101562 17.765625 7.367188 18.5 6.460938 18.5 Z M 6.402344 7.730469 C 5.398438 7.730469 4.730469 7.0625 4.730469 6.171875 C 4.730469 5.28125 5.398438 4.613281 6.511719 4.613281 C 7.515625 4.613281 8.183594 5.28125 8.183594 6.171875 C 8.183594 7.0625 7.515625 7.730469 6.402344 7.730469 Z M 18.210938 18.5 C 17.335938 18.5 16.625 17.789062 16.625 16.914062 L 16.625 13.527344 C 16.625 12.152344 15.777344 12 15.460938 12 C 15.144531 12 14.085938 12.046875 14.085938 13.527344 L 14.085938 16.914062 C 14.085938 17.789062 13.375 18.5 12.5 18.5 L 12.394531 18.5 C 11.519531 18.5 10.804688 17.789062 10.804688 16.914062 L 10.804688 11.039062 C 10.804688 10.132812 11.542969 9.398438 12.445312 9.398438 C 13.351562 9.398438 14.085938 10.132812 14.085938 11.039062 C 14.085938 11.039062 14.453125 9.398438 16.945312 9.398438 C 18.53125 9.398438 19.800781 10.671875 19.800781 13.527344 L 19.800781 16.914062 C 19.800781 17.789062 19.089844 18.5 18.210938 18.5 Z M 18.210938 18.5 "/>
</g>
</svg>
