<?xml version="1.0" encoding="UTF-8"?>
<svg xmlns="http://www.w3.org/2000/svg" xmlns:xlink="http://www.w3.org/1999/xlink" viewBox="0 0 48 48" width="48px" height="48px">
<g id="surface98940860">
<path style=" stroke:none;fill-rule:nonzero;fill:rgb(96.078432%,27.843139%,40.784314%);fill-opacity:1;" d="M 42.199219 0.601562 L 5.800781 0.601562 C 2.925781 0.601562 0.601562 2.925781 0.601562 5.800781 L 0.601562 42.199219 C 0.601562 45.074219 2.925781 47.398438 5.800781 47.398438 L 42.199219 47.398438 C 45.074219 47.398438 47.398438 45.074219 47.398438 42.199219 L 47.398438 5.800781 C 47.398438 2.925781 45.074219 0.601562 42.199219 0.601562 Z M 12.917969 37 C 11.105469 37 9.636719 35.53125 9.636719 33.71875 L 9.636719 22.078125 C 9.640625 20.269531 11.109375 18.800781 12.917969 18.800781 C 14.730469 18.800781 16.199219 20.269531 16.199219 22.082031 L 16.199219 33.722656 C 16.199219 35.53125 14.730469 37 12.917969 37 Z M 12.804688 15.464844 C 10.800781 15.464844 9.460938 14.128906 9.460938 12.34375 C 9.460938 10.5625 10.796875 9.222656 13.027344 9.222656 C 15.03125 9.222656 16.367188 10.5625 16.367188 12.34375 C 16.367188 14.128906 15.03125 15.464844 12.804688 15.464844 Z M 36.425781 37 C 34.671875 37 33.25 35.578125 33.25 33.824219 L 33.25 27.050781 C 33.25 24.300781 31.558594 24 30.921875 24 C 30.289062 24 28.171875 24.089844 28.171875 27.050781 L 28.171875 33.824219 C 28.171875 35.578125 26.75 37 25 37 L 24.789062 37 C 23.035156 37 21.613281 35.578125 21.613281 33.824219 L 21.613281 22.082031 C 21.613281 20.269531 23.082031 18.800781 24.894531 18.800781 C 26.707031 18.800781 28.175781 20.269531 28.175781 22.082031 C 28.175781 22.082031 28.910156 18.800781 33.890625 18.800781 C 37.058594 18.800781 39.601562 21.339844 39.601562 27.050781 L 39.601562 33.824219 C 39.601562 35.578125 38.179688 37 36.425781 37 Z M 36.425781 37 "/>
</g>
</svg>
